name Walk8_EMG.mot
datacolumns 17
datarows 25
range 4.24900000 4.27300000
endheader
                time	            vasmed_r	            vaslat_r	            recfem_r	               gra_r	               sar_r	            tibant_r	           perlong_r	            addmag_r	           semimem_r	          bicfemlh_r	            gasmed_r	            gaslat_r	               sol_r	               tfl_r	              gmed_r	              gmax_r	
          4.24900000	          0.19439073	          0.09365157	          0.12204839	          0.19047884	          0.85782439	          0.39866467	          0.18916750	          0.28394492	          0.02490323	          0.06108270	          0.07415902	          0.14799605	          0.05108690	          0.10979122	          0.20741559	          0.16874781	
          4.25000000	          0.19328135	          0.09311202	          0.12210147	          0.18116937	          0.84851197	          0.40532745	          0.18784589	          0.28790625	          0.02371979	          0.06075515	          0.07508518	          0.14735168	          0.05063211	          0.11041681	          0.20433625	          0.16868560	
          4.25100000	          0.19218949	          0.09253281	          0.12229171	          0.17215845	          0.83846066	          0.41197411	          0.18646593	          0.29180685	          0.02273366	          0.06046751	          0.07600646	          0.14665133	          0.05014876	          0.11112050	          0.20120423	          0.16860986	
          4.25200000	          0.19112404	          0.09191667	          0.12265433	          0.16346474	          0.82772343	          0.41857321	          0.18502511	          0.29565382	          0.02193695	          0.06021850	          0.07692084	          0.14589751	          0.04964053	          0.11191365	          0.19802792	          0.16851979	
          4.25300000	          0.19009100	          0.09126750	          0.12322571	          0.15510470	          0.81635241	          0.42509175	          0.18352048	          0.29945313	          0.02132119	          0.06000677	          0.07782683	          0.14509181	          0.04911101	          0.11280534	          0.19481514	          0.16841365	
          4.25400000	          0.18909396	          0.09059007	          0.12403940	          0.14709314	          0.80440014	          0.43149786	          0.18194879	          0.30321067	          0.02087783	          0.05983085	          0.07872323	          0.14423536	          0.04856374	          0.11380221	          0.19157279	          0.16828912	
          4.25500000	          0.18813485	          0.08988913	          0.12512434	          0.13944323	          0.79192269	          0.43776282	          0.18030661	          0.30693387	          0.02059861	          0.05968897	          0.07960899	          0.14332948	          0.04800223	          0.11490874	          0.18830712	          0.16814409	
          4.25600000	          0.18721429	          0.08916889	          0.12650371	          0.13216597	          0.77898321	          0.44386121	          0.17859049	          0.31063131	          0.02047552	          0.05957904	          0.08048298	          0.14237628	          0.04742983	          0.11612784	          0.18502411	          0.16797748	
          4.25700000	          0.18633173	          0.08843294	          0.12819398	          0.12527011	          0.76565176	          0.44976946	          0.17679713	          0.31431047	          0.02050063	          0.05949875	          0.08134376	          0.14137843	          0.04684963	          0.11746089	          0.18172937	          0.16778937	
          4.25800000	          0.18548526	          0.08768417	          0.13020440	          0.11876244	          0.75200058	          0.45546395	          0.17492360	          0.31797519	          0.02066573	          0.05944594	          0.08218947	          0.14033845	          0.04626444	          0.11890762	          0.17842801	          0.16758034	
          4.25900000	          0.18467144	          0.08692467	          0.13253713	          0.11264808	          0.73809887	          0.46092058	          0.17296743	          0.32162539	          0.02096209	          0.05941865	          0.08301773	          0.13925855	          0.04567684	          0.12046610	          0.17512473	          0.16735096	
          4.26000000	          0.18388548	          0.08615568	          0.13518836	          0.10693091	          0.72400958	          0.46611711	          0.17092657	          0.32525841	          0.02138074	          0.05941516	          0.08382548	          0.13814140	          0.04508917	          0.12213323	          0.17182449	          0.16710194	
          4.26100000	          0.18312143	          0.08537779	          0.13814968	          0.10161399	          0.70978815	          0.47103871	          0.16879959	          0.32886993	          0.02191308	          0.05943403	          0.08460930	          0.13699079	          0.04450358	          0.12390554	          0.16853353	          0.16683407	
          4.26200000	          0.18237255	          0.08459115	          0.14140908	          0.09669929	          0.69548356	          0.47568386	          0.16658584	          0.33245367	          0.02255135	          0.05947399	          0.08536575	          0.13581126	          0.04392210	          0.12578031	          0.16526039	          0.16654828	
          4.26300000	          0.18163150	          0.08379563	          0.14495160	          0.09218774	          0.68114062	          0.48006584	          0.16428552	          0.33600099	          0.02328856	          0.05953375	          0.08609199	          0.13460750	          0.04334658	          0.12775651	          0.16201581	          0.16624594	
          4.26400000	          0.18089032	          0.08299088	          0.14876000	          0.08807925	          0.66680149	          0.48420865	          0.16189951	          0.33950039	          0.02411793	          0.05961204	          0.08678642	          0.13338427	          0.04277863	          0.12983579	          0.15881130	          0.16592889	
          4.26500000	          0.18014037	          0.08217633	          0.15281487	          0.08437211	          0.65250476	          0.48814122	          0.15942929	          0.34293704	          0.02503263	          0.05970800	          0.08744870	          0.13214671	          0.04221985	          0.13202370	          0.15565742	          0.16559954	
          4.26600000	          0.17937244	          0.08135123	          0.15709466	          0.08106232	          0.63828405	          0.49189260	          0.15687682	          0.34629289	          0.02602611	          0.05982142	          0.08807894	          0.13089995	          0.04167202	          0.13432953	          0.15256330	          0.16526194	
          4.26700000	          0.17857694	          0.08051453	          0.16157559	          0.07814336	          0.62416784	          0.49548834	          0.15424452	          0.34954747	          0.02709283	          0.05995249	          0.08867683	          0.12964855	          0.04113744	          0.13676363	          0.14953804	          0.16492309	
          4.26800000	          0.17774400	          0.07966494	          0.16623227	          0.07560635	          0.61018055	          0.49894799	          0.15153516	          0.35267841	          0.02822835	          0.06010140	          0.08924170	          0.12839622	          0.04061893	          0.13933531	          0.14659211	          0.16459307	
          4.26900000	          0.17686369	          0.07880102	          0.17103974	          0.07344090	          0.59634478	          0.50228428	          0.14875182	          0.35566210	          0.02942874	          0.06026801	          0.08977321	          0.12714625	          0.04011951	          0.14205217	          0.14373680	          0.16428415	
          4.27000000	          0.17592623	          0.07792134	          0.17597608	          0.07163596	          0.58268672	          0.50550577	          0.14589797	          0.35847427	          0.03069004	          0.06045177	          0.09027222	          0.12590178	          0.03964226	          0.14491970	          0.14098237	          0.16400886	
          4.27100000	          0.17492251	          0.07702472	          0.18102323	          0.07017981	          0.56924328	          0.50862342	          0.14297745	          0.36109084	          0.03200800	          0.06065161	          0.09074045	          0.12466587	          0.03919016	          0.14794126	          0.13833681	          0.16377801	
          4.27200000	          0.17384426	          0.07611020	          0.18616481	          0.06905960	          0.55606608	          0.51165593	          0.13999454	          0.36348909	          0.03337798	          0.06086615	          0.09117967	          0.12344135	          0.03876591	          0.15111821	          0.13580585	          0.16359959	
          4.27300000	          0.17268410	          0.07517693	          0.19138354	          0.06826161	          0.54321944	          0.51462941	          0.13695377	          0.36564918	          0.03479529	          0.06109385	          0.09159123	          0.12223088	          0.03837172	          0.15444902	          0.13339351	          0.16347876	
